<mxfile host="app.diagrams.net" agent="Mozilla/5.0 (Windows NT 10.0; Win64; x64) AppleWebKit/537.36 (KHTML, like Gecko) Chrome/136.0.0.0 Safari/537.36" version="27.0.6">
  <diagram name="Página-1" id="mFuFijPX-kD8Hohqrk1-">
    <mxGraphModel dx="2420" dy="1762" grid="1" gridSize="10" guides="1" tooltips="1" connect="1" arrows="1" fold="1" page="1" pageScale="1" pageWidth="1169" pageHeight="827" math="0" shadow="0">
      <root>
        <mxCell id="0" />
        <mxCell id="1" parent="0" />
        <mxCell id="YA09x56kJ7bcHWnboIsO-8" value="" style="group" vertex="1" connectable="0" parent="1">
          <mxGeometry x="672.5" y="266.5" width="120" height="97" as="geometry" />
        </mxCell>
        <mxCell id="YA09x56kJ7bcHWnboIsO-40" style="edgeStyle=orthogonalEdgeStyle;rounded=0;orthogonalLoop=1;jettySize=auto;html=1;" edge="1" parent="YA09x56kJ7bcHWnboIsO-8" source="YA09x56kJ7bcHWnboIsO-9">
          <mxGeometry relative="1" as="geometry">
            <mxPoint x="221.5" y="27.000000000000227" as="targetPoint" />
          </mxGeometry>
        </mxCell>
        <mxCell id="YA09x56kJ7bcHWnboIsO-9" value="" style="points=[[0,0.5,0],[0.24,0,0],[0.5,0.28,0],[0.995,0.475,0],[0.5,0.72,0],[0.24,1,0]];verticalLabelPosition=bottom;sketch=0;html=1;verticalAlign=top;aspect=fixed;align=center;pointerEvents=1;shape=mxgraph.cisco19.key;fillColor=#005073;strokeColor=none;rotation=90;direction=south;" vertex="1" parent="YA09x56kJ7bcHWnboIsO-8">
          <mxGeometry x="33" y="-33" width="54" height="120" as="geometry" />
        </mxCell>
        <mxCell id="YA09x56kJ7bcHWnboIsO-10" value="Criptografia simétrica" style="text;html=1;align=center;verticalAlign=middle;whiteSpace=wrap;rounded=0;" vertex="1" parent="YA09x56kJ7bcHWnboIsO-8">
          <mxGeometry x="33" y="67" width="60" height="30" as="geometry" />
        </mxCell>
        <mxCell id="YA09x56kJ7bcHWnboIsO-26" value="" style="group" vertex="1" connectable="0" parent="1">
          <mxGeometry x="535" y="614" width="78" height="118" as="geometry" />
        </mxCell>
        <mxCell id="YA09x56kJ7bcHWnboIsO-16" value="" style="sketch=0;points=[[0,0,0],[0.25,0,0],[0.5,0,0],[0.75,0,0],[1,0,0],[0,1,0],[0.25,1,0],[0.5,1,0],[0.75,1,0],[1,1,0],[0,0.25,0],[0,0.5,0],[0,0.75,0],[1,0.25,0],[1,0.5,0],[1,0.75,0]];points=[[0,0,0],[0.25,0,0],[0.5,0,0],[0.75,0,0],[1,0,0],[0,1,0],[0.25,1,0],[0.5,1,0],[0.75,1,0],[1,1,0],[0,0.25,0],[0,0.5,0],[0,0.75,0],[1,0.25,0],[1,0.5,0],[1,0.75,0]];outlineConnect=0;fontColor=#232F3E;fillColor=#E7157B;strokeColor=#ffffff;dashed=0;verticalLabelPosition=bottom;verticalAlign=top;align=center;html=1;fontSize=12;fontStyle=0;aspect=fixed;shape=mxgraph.aws4.resourceIcon;resIcon=mxgraph.aws4.managed_service_for_grafana;" vertex="1" parent="YA09x56kJ7bcHWnboIsO-26">
          <mxGeometry width="78" height="78" as="geometry" />
        </mxCell>
        <mxCell id="YA09x56kJ7bcHWnboIsO-17" value="Grafana" style="text;html=1;align=center;verticalAlign=middle;whiteSpace=wrap;rounded=0;" vertex="1" parent="YA09x56kJ7bcHWnboIsO-26">
          <mxGeometry x="9" y="88" width="60" height="30" as="geometry" />
        </mxCell>
        <mxCell id="YA09x56kJ7bcHWnboIsO-27" value="" style="group" vertex="1" connectable="0" parent="1">
          <mxGeometry x="535" y="424" width="78" height="120" as="geometry" />
        </mxCell>
        <mxCell id="YA09x56kJ7bcHWnboIsO-11" value="" style="sketch=0;points=[[0,0,0],[0.25,0,0],[0.5,0,0],[0.75,0,0],[1,0,0],[0,1,0],[0.25,1,0],[0.5,1,0],[0.75,1,0],[1,1,0],[0,0.25,0],[0,0.5,0],[0,0.75,0],[1,0.25,0],[1,0.5,0],[1,0.75,0]];outlineConnect=0;fontColor=#232F3E;fillColor=#7AA116;strokeColor=#ffffff;dashed=0;verticalLabelPosition=bottom;verticalAlign=top;align=center;html=1;fontSize=12;fontStyle=0;aspect=fixed;shape=mxgraph.aws4.resourceIcon;resIcon=mxgraph.aws4.iot_analytics;" vertex="1" parent="YA09x56kJ7bcHWnboIsO-27">
          <mxGeometry width="78" height="78" as="geometry" />
        </mxCell>
        <mxCell id="YA09x56kJ7bcHWnboIsO-44" style="edgeStyle=orthogonalEdgeStyle;rounded=0;orthogonalLoop=1;jettySize=auto;html=1;" edge="1" parent="YA09x56kJ7bcHWnboIsO-27" source="YA09x56kJ7bcHWnboIsO-12">
          <mxGeometry relative="1" as="geometry">
            <mxPoint x="39.00000000000023" y="190.00000000000023" as="targetPoint" />
          </mxGeometry>
        </mxCell>
        <mxCell id="YA09x56kJ7bcHWnboIsO-12" value="IoT Analytics" style="text;html=1;align=center;verticalAlign=middle;whiteSpace=wrap;rounded=0;" vertex="1" parent="YA09x56kJ7bcHWnboIsO-27">
          <mxGeometry x="9" y="90" width="60" height="30" as="geometry" />
        </mxCell>
        <mxCell id="YA09x56kJ7bcHWnboIsO-28" value="" style="group" vertex="1" connectable="0" parent="1">
          <mxGeometry x="895" y="255" width="80" height="120" as="geometry" />
        </mxCell>
        <mxCell id="YA09x56kJ7bcHWnboIsO-5" value="" style="sketch=0;points=[[0,0,0],[0.25,0,0],[0.5,0,0],[0.75,0,0],[1,0,0],[0,1,0],[0.25,1,0],[0.5,1,0],[0.75,1,0],[1,1,0],[0,0.25,0],[0,0.5,0],[0,0.75,0],[1,0.25,0],[1,0.5,0],[1,0.75,0]];outlineConnect=0;fontColor=#232F3E;fillColor=#C925D1;strokeColor=#ffffff;dashed=0;verticalLabelPosition=bottom;verticalAlign=top;align=center;html=1;fontSize=12;fontStyle=0;aspect=fixed;shape=mxgraph.aws4.resourceIcon;resIcon=mxgraph.aws4.rds;container=0;" vertex="1" parent="YA09x56kJ7bcHWnboIsO-28">
          <mxGeometry width="80" height="80" as="geometry" />
        </mxCell>
        <mxCell id="YA09x56kJ7bcHWnboIsO-7" value="RDS MYSQL" style="text;html=1;align=center;verticalAlign=middle;whiteSpace=wrap;rounded=0;" vertex="1" parent="YA09x56kJ7bcHWnboIsO-28">
          <mxGeometry x="10" y="90" width="60" height="30" as="geometry" />
        </mxCell>
        <mxCell id="YA09x56kJ7bcHWnboIsO-29" value="" style="group" vertex="1" connectable="0" parent="1">
          <mxGeometry x="534" y="261" width="78" height="108" as="geometry" />
        </mxCell>
        <mxCell id="YA09x56kJ7bcHWnboIsO-37" style="edgeStyle=orthogonalEdgeStyle;rounded=0;orthogonalLoop=1;jettySize=auto;html=1;" edge="1" parent="YA09x56kJ7bcHWnboIsO-29" source="YA09x56kJ7bcHWnboIsO-1">
          <mxGeometry relative="1" as="geometry">
            <mxPoint x="-80.00000000000023" y="39" as="targetPoint" />
          </mxGeometry>
        </mxCell>
        <mxCell id="YA09x56kJ7bcHWnboIsO-39" style="edgeStyle=orthogonalEdgeStyle;rounded=0;orthogonalLoop=1;jettySize=auto;html=1;" edge="1" parent="YA09x56kJ7bcHWnboIsO-29" source="YA09x56kJ7bcHWnboIsO-1">
          <mxGeometry relative="1" as="geometry">
            <mxPoint x="130" y="39" as="targetPoint" />
          </mxGeometry>
        </mxCell>
        <mxCell id="YA09x56kJ7bcHWnboIsO-1" value="" style="sketch=0;points=[[0,0,0],[0.25,0,0],[0.5,0,0],[0.75,0,0],[1,0,0],[0,1,0],[0.25,1,0],[0.5,1,0],[0.75,1,0],[1,1,0],[0,0.25,0],[0,0.5,0],[0,0.75,0],[1,0.25,0],[1,0.5,0],[1,0.75,0]];outlineConnect=0;fontColor=#232F3E;fillColor=#7AA116;strokeColor=#ffffff;dashed=0;verticalLabelPosition=bottom;verticalAlign=top;align=center;html=1;fontSize=12;fontStyle=0;aspect=fixed;shape=mxgraph.aws4.resourceIcon;resIcon=mxgraph.aws4.iot_core;container=1;" vertex="1" parent="YA09x56kJ7bcHWnboIsO-29">
          <mxGeometry width="78" height="78" as="geometry" />
        </mxCell>
        <mxCell id="YA09x56kJ7bcHWnboIsO-43" style="edgeStyle=orthogonalEdgeStyle;rounded=0;orthogonalLoop=1;jettySize=auto;html=1;" edge="1" parent="YA09x56kJ7bcHWnboIsO-29" source="YA09x56kJ7bcHWnboIsO-2">
          <mxGeometry relative="1" as="geometry">
            <mxPoint x="39" y="153" as="targetPoint" />
          </mxGeometry>
        </mxCell>
        <mxCell id="YA09x56kJ7bcHWnboIsO-2" value="Iot Core" style="text;html=1;align=center;verticalAlign=middle;whiteSpace=wrap;rounded=0;" vertex="1" parent="YA09x56kJ7bcHWnboIsO-29">
          <mxGeometry x="9" y="78" width="60" height="30" as="geometry" />
        </mxCell>
        <mxCell id="YA09x56kJ7bcHWnboIsO-30" value="" style="group" vertex="1" connectable="0" parent="1">
          <mxGeometry x="194" y="249" width="76.5" height="106.5" as="geometry" />
        </mxCell>
        <mxCell id="YA09x56kJ7bcHWnboIsO-22" value="" style="outlineConnect=0;dashed=0;verticalLabelPosition=bottom;verticalAlign=top;align=center;html=1;shape=mxgraph.aws3.sns;fillColor=#D9A741;gradientColor=none;container=1;" vertex="1" parent="YA09x56kJ7bcHWnboIsO-30">
          <mxGeometry width="76.5" height="76.5" as="geometry" />
        </mxCell>
        <mxCell id="YA09x56kJ7bcHWnboIsO-23" value="SNS" style="text;html=1;align=center;verticalAlign=middle;whiteSpace=wrap;rounded=0;" vertex="1" parent="YA09x56kJ7bcHWnboIsO-30">
          <mxGeometry x="8.25" y="76.5" width="60" height="30" as="geometry" />
        </mxCell>
        <mxCell id="YA09x56kJ7bcHWnboIsO-32" value="" style="group" vertex="1" connectable="0" parent="1">
          <mxGeometry x="364" y="249" width="82.5" height="132" as="geometry" />
        </mxCell>
        <mxCell id="YA09x56kJ7bcHWnboIsO-38" style="edgeStyle=orthogonalEdgeStyle;rounded=0;orthogonalLoop=1;jettySize=auto;html=1;" edge="1" parent="YA09x56kJ7bcHWnboIsO-32" source="YA09x56kJ7bcHWnboIsO-18">
          <mxGeometry relative="1" as="geometry">
            <mxPoint x="-80" y="46.5" as="targetPoint" />
          </mxGeometry>
        </mxCell>
        <mxCell id="YA09x56kJ7bcHWnboIsO-18" value="" style="outlineConnect=0;dashed=0;verticalLabelPosition=bottom;verticalAlign=top;align=center;html=1;shape=mxgraph.aws3.cloudwatch;fillColor=#759C3E;gradientColor=none;" vertex="1" parent="YA09x56kJ7bcHWnboIsO-32">
          <mxGeometry width="82.5" height="93" as="geometry" />
        </mxCell>
        <mxCell id="YA09x56kJ7bcHWnboIsO-19" value="Cloud Watch" style="text;html=1;align=center;verticalAlign=middle;whiteSpace=wrap;rounded=0;" vertex="1" parent="YA09x56kJ7bcHWnboIsO-32">
          <mxGeometry x="11" y="102" width="60" height="30" as="geometry" />
        </mxCell>
        <mxCell id="YA09x56kJ7bcHWnboIsO-35" value="" style="group" vertex="1" connectable="0" parent="1">
          <mxGeometry x="535" y="94" width="77" height="123" as="geometry" />
        </mxCell>
        <mxCell id="YA09x56kJ7bcHWnboIsO-33" value="" style="sketch=0;outlineConnect=0;fontColor=#232F3E;gradientColor=none;fillColor=#7AA116;strokeColor=none;dashed=0;verticalLabelPosition=bottom;verticalAlign=top;align=center;html=1;fontSize=12;fontStyle=0;aspect=fixed;pointerEvents=1;shape=mxgraph.aws4.iot_core_device_advisor;" vertex="1" parent="YA09x56kJ7bcHWnboIsO-35">
          <mxGeometry width="77" height="78" as="geometry" />
        </mxCell>
        <mxCell id="YA09x56kJ7bcHWnboIsO-34" value="Device IoT" style="text;html=1;align=center;verticalAlign=middle;whiteSpace=wrap;rounded=0;" vertex="1" parent="YA09x56kJ7bcHWnboIsO-35">
          <mxGeometry x="8.5" y="93" width="60" height="30" as="geometry" />
        </mxCell>
        <mxCell id="YA09x56kJ7bcHWnboIsO-36" style="edgeStyle=orthogonalEdgeStyle;rounded=0;orthogonalLoop=1;jettySize=auto;html=1;exitX=0.5;exitY=1;exitDx=0;exitDy=0;entryX=0.5;entryY=0;entryDx=0;entryDy=0;entryPerimeter=0;" edge="1" parent="1" source="YA09x56kJ7bcHWnboIsO-34" target="YA09x56kJ7bcHWnboIsO-1">
          <mxGeometry relative="1" as="geometry" />
        </mxCell>
      </root>
    </mxGraphModel>
  </diagram>
</mxfile>
